<svg width="356" height="129" viewBox="0 0 356 129" fill="none" xmlns="http://www.w3.org/2000/svg">
<path d="M288.751 69.4155C289.088 69.4339 289.425 69.4753 289.766 69.4753C298.843 69.4753 307.919 69.4707 316.991 69.4937C317.711 69.4937 317.872 69.3005 317.872 68.606C317.849 60.4651 317.844 52.3243 317.872 44.1834C317.872 43.4153 317.651 43.2268 316.926 43.2728C315.911 43.3372 314.891 43.2682 313.876 43.2958C313.373 43.3096 313.193 43.1256 313.304 42.6564C313.821 40.481 313.456 38.3147 312.935 36.2404C312.63 35.0215 312.173 33.7613 311.551 32.6115C310.775 31.1811 309.908 29.8151 308.745 28.4261C309.22 28.4031 309.511 28.3801 309.802 28.3801C312.206 28.3801 314.61 28.3571 317.009 28.3939C317.664 28.4031 317.877 28.2421 317.867 27.5568C317.835 23.8681 317.872 20.1748 317.835 16.4861C317.826 15.6582 318.094 15.4237 318.91 15.4329C322.897 15.4697 326.884 15.4697 330.871 15.4329C331.627 15.4283 331.886 15.6031 331.876 16.4033C331.835 20.1196 331.876 23.8405 331.84 27.5568C331.835 28.2375 332.033 28.3939 332.689 28.3893C340.154 28.3663 347.616 28.3755 355.082 28.3755C356.106 28.3755 356.217 28.4996 355.668 29.3827C354.422 31.3972 353.37 33.5129 352.207 35.5734C351.699 36.4749 351.289 37.4316 350.726 38.2917C349.748 39.7773 349.083 41.4376 348.119 42.9324C347.86 43.3372 347.537 43.2866 347.187 43.2866C342.379 43.2866 337.575 43.305 332.767 43.2682C332.029 43.2636 331.835 43.4291 331.835 44.1834C331.863 57.0018 331.844 69.8202 331.872 82.634C331.872 83.3791 331.692 83.5677 330.949 83.5677C304.768 83.5447 278.591 83.5585 252.409 83.5263C250.134 83.5263 247.947 82.864 245.825 82.0407C243.877 81.2818 242.129 80.1504 240.546 78.8488C239.535 78.0163 238.728 76.8986 237.897 75.8408C236.938 74.622 236.333 73.2191 235.622 71.8807C234.94 70.5883 234.718 69.1073 234.46 67.6539C234.054 65.391 234.15 63.1144 234.15 60.8423C234.141 54.3894 234.15 47.9411 234.15 41.4882C234.15 38.9586 234.593 36.4841 235.406 34.1154C236.139 31.9676 237.21 29.9208 238.668 28.1547C240.786 25.5836 243.421 23.6243 246.544 22.4515C248.099 21.8674 249.761 21.4764 251.459 21.4764C260.899 21.4718 270.345 21.4764 279.786 21.4764C280.773 21.4764 281.715 21.9226 282.711 21.7616C284.52 22.6401 286.19 23.7301 287.815 24.9121C288.959 25.7446 290.099 26.5771 291.174 27.5062C292.817 28.9228 294.413 30.3716 295.65 32.1699C295.853 33.03 296.176 33.8395 296.531 34.6582C297.099 35.969 297.306 37.4316 297.38 38.839C297.565 42.4909 297.643 46.152 296.153 49.6429C295.585 50.9675 295.137 52.3197 294.39 53.5891C292.738 56.3809 290.556 58.5518 287.773 60.2122C285.281 61.6978 282.596 62.5073 279.74 62.5257C269.99 62.5946 260.235 62.5532 250.485 62.5854C249.793 62.5854 249.705 62.3003 249.71 61.7346C249.724 57.6503 249.733 53.5661 249.71 49.4819C249.71 48.746 249.881 48.4792 250.697 48.4838C259.317 48.516 267.941 48.5068 276.56 48.4976C277.732 48.4976 278.895 48.4976 280.072 48.2401C281.821 47.8583 282.882 46.7683 283.722 45.3149C284.252 44.395 284.252 43.3831 284.322 42.3851C284.405 41.1571 284.437 39.883 283.846 38.7976C282.702 36.6911 280.829 35.5504 278.415 35.5412C270.022 35.5045 261.624 35.5275 253.231 35.5275C252.617 35.5275 252.026 35.6562 251.417 35.7804C249.147 36.2358 247.403 38.5768 247.375 40.7477C247.274 48.631 247.292 56.5189 247.361 64.4022C247.384 67.0514 250.079 69.4431 252.626 69.4477C261.306 69.4661 269.98 69.4615 278.66 69.4661C280.866 69.4661 283.067 69.4845 285.272 69.4937C285.208 69.9076 284.769 69.903 284.525 70.1146C282.693 71.7014 280.69 73.0674 278.669 74.392C276.311 75.9374 273.856 77.3356 271.443 78.7982C272.38 78.6786 273.15 78.1727 273.958 77.7863C275.393 77.0964 276.787 76.3191 278.18 75.551C280.053 74.5162 281.927 73.4675 283.777 72.3959C285.452 71.4208 287.104 70.4043 288.765 69.4063L288.751 69.4155Z" fill="#3B6440"/>
<path d="M125.535 21.7293C131.414 21.7293 137.297 21.7293 143.175 21.7293C144.869 21.7293 146.484 22.1709 148.09 22.6446C150.452 23.3437 152.57 24.5349 154.439 26.1033C155.999 27.4141 157.258 29.0009 158.366 30.7441C159.501 32.5378 160.188 34.4649 160.742 36.4749C161.167 38.0294 161.203 39.6162 161.328 41.203C161.706 45.9771 161.614 50.7651 161.466 55.53C161.365 58.8139 161.466 62.0979 161.254 65.3726C161.125 67.3641 160.631 69.3096 159.865 71.177C159.602 71.8163 159.455 72.5108 159.141 73.1179C157.729 75.8223 156.008 78.2738 153.488 80.1043C152.326 80.946 151.149 81.7601 149.825 82.3074C148.283 82.9467 146.701 83.4435 145.003 83.5492C135.516 84.1334 126.02 83.7562 116.528 83.7424C113.072 83.7424 109.759 82.6708 106.796 80.7068C104.734 79.3362 102.911 77.7679 101.536 75.6889C100.719 74.4563 99.958 73.2099 99.372 71.8439C98.8645 70.6619 98.6891 69.4016 98.3107 68.192C97.6555 66.1223 97.8493 63.9928 97.7663 61.8725C97.7247 60.7686 98.3108 59.835 98.3984 58.7495C98.4676 57.8527 98.7445 56.9098 99.0213 56.0037C99.6074 54.0582 100.503 52.2736 101.638 50.6041C103.899 47.2787 106.893 44.8917 110.732 43.5717C112.061 43.1163 113.409 42.8358 114.807 42.7484C122.259 42.2792 129.716 42.638 137.172 42.5506C140.536 42.5138 143.9 42.454 147.259 42.6058C147.96 42.638 148.21 42.408 148.214 41.6399C148.223 39.768 147.508 38.2548 146.124 37.0682C145.326 36.3875 144.394 35.854 143.282 35.831C142.266 35.808 141.247 35.8034 140.227 35.8034C129.231 35.8034 118.231 35.8034 107.235 35.8034C106.515 35.8034 106.155 35.4415 106.155 34.7179C106.155 30.7763 106.155 26.83 106.155 22.8884C106.155 22.1065 106.538 21.714 107.304 21.7109C113.381 21.7109 119.463 21.7109 125.54 21.7109V21.7247L125.535 21.7293ZM131.787 56.7994C126.901 56.7994 122.01 56.7994 117.123 56.7994C116.376 56.7994 115.651 56.8776 114.908 57.0938C112.67 57.7469 111.641 59.5544 111.125 61.4585C110.649 63.2017 110.779 65.1196 111.895 66.803C112.91 68.33 114.285 69.3372 116.08 69.4476C121.664 69.7926 127.261 69.5626 132.853 69.5856C136.383 69.5994 139.918 69.7604 143.438 69.4568C144.698 69.3464 145.723 68.7485 146.576 67.7965C147.73 66.5086 148.21 65.0185 148.196 63.3213C148.177 61.4356 148.159 59.5498 148.21 57.6641C148.228 56.942 147.988 56.781 147.301 56.7856C142.128 56.8132 136.96 56.7994 131.787 56.7994Z" fill="#3B6440"/>
<path d="M164.775 55.2035C164.775 46.2991 164.789 37.3994 164.766 28.495C164.756 25.8504 166.081 23.9187 168.092 22.4791C168.997 21.8352 170.146 21.4488 171.392 21.4534C182.475 21.4902 193.559 21.458 204.642 21.504C206.253 21.5086 207.831 21.9087 209.418 22.2675C212.053 22.8608 214.466 23.9187 216.713 25.3077C219.588 27.0738 222.112 29.2447 224.036 32.1009C225.406 34.1384 226.403 36.2863 227.289 38.563C228.526 41.7504 228.83 45.0205 228.84 48.3504C228.876 59.7614 228.849 71.1678 228.867 82.5788C228.867 83.3101 228.743 83.5861 227.917 83.5769C223.958 83.5309 219.999 83.5401 216.044 83.5723C215.333 83.5769 215.158 83.3745 215.158 82.6754C215.181 72.1107 215.172 61.546 215.181 50.9813C215.181 49.0127 215.274 47.012 214.766 45.1171C214.351 43.5579 213.635 42.0815 212.611 40.7523C211.541 39.3587 210.281 38.2916 208.735 37.473C207.148 36.6313 205.464 36.1713 203.705 36.1621C195.621 36.1207 187.532 36.1529 179.448 36.1207C178.668 36.1207 178.673 36.4749 178.673 37.036C178.682 52.2185 178.673 67.4055 178.696 82.588C178.696 83.3423 178.53 83.5815 177.741 83.5723C173.699 83.5355 169.657 83.5355 165.61 83.5723C164.872 83.5815 164.752 83.3423 164.752 82.6708C164.775 73.5135 164.766 64.3608 164.766 55.2035H164.775Z" fill="#3B6440"/>
<path d="M288.751 69.4155C287.09 70.4135 285.438 71.4299 283.763 72.4049C281.913 73.4812 280.04 74.5252 278.166 75.5601C276.773 76.3282 275.379 77.1055 273.944 77.7954C273.137 78.1817 272.366 78.6877 271.429 78.8072C273.843 77.3446 276.297 75.9464 278.655 74.4011C280.676 73.0764 282.679 71.7058 284.511 70.1237C284.755 69.9121 285.189 69.9167 285.258 69.5027C285.337 69.4797 285.434 69.4751 285.498 69.4292C287.944 67.6446 290.053 65.4967 292.138 63.3212C293.758 61.6287 295.184 59.7705 296.494 57.8526C297.906 55.7875 298.917 53.4694 299.756 51.1145C300.347 49.4634 300.582 47.6926 300.638 45.9449C300.73 43.1622 300.356 40.4532 299.184 37.8592C298.252 35.7941 297.311 33.7704 295.645 32.1744C294.408 30.376 292.812 28.9272 291.169 27.5106C290.094 26.5816 288.954 25.7491 287.81 24.9166C286.186 23.7346 284.515 22.6445 282.707 21.7661C282.088 20.9888 281.133 20.7266 280.303 20.3127C278.138 19.2364 275.937 18.2246 273.709 17.2817C271.974 16.5458 270.197 15.9019 268.402 15.2948C266.94 14.798 265.491 14.2415 264.019 13.7632C261.952 13.0963 259.843 12.5535 257.743 11.9832C254.781 11.1737 251.777 10.5298 248.773 9.87672C246.914 9.47198 245.045 9.15003 243.181 8.77288C241.326 8.40033 239.452 8.14737 237.593 7.83461C235.83 7.54025 234.063 7.32868 232.3 7.05732C229.836 6.68017 227.363 6.40881 224.88 6.15125C220.211 5.67292 215.536 5.31417 210.858 4.98761C205.62 4.61966 200.383 4.56907 195.141 4.39889C188.921 4.19652 182.71 4.42649 176.5 4.57367C174.248 4.62426 171.982 4.57367 169.744 4.80364C166.33 5.15319 162.897 5.19918 159.478 5.51654C157.646 5.68671 155.786 5.7925 153.954 5.97647C151.73 6.20184 149.469 6.18344 147.277 6.70317C147.033 6.76296 146.77 6.73997 146.516 6.75376C144.126 6.84575 141.782 7.33328 139.41 7.54945C138.547 7.62764 137.712 7.83001 136.854 7.9082C134.883 8.08758 132.936 8.39113 130.984 8.73608C128.917 9.10403 126.827 9.3294 124.75 9.65136C122.706 9.96871 120.667 10.3229 118.627 10.6724C117.386 10.884 116.149 11.1048 114.917 11.3439C113.173 11.6843 111.443 12.0982 109.689 12.3788C108.028 12.6455 106.395 13.0273 104.761 13.3952C102.796 13.8414 100.821 14.2369 98.8643 14.7336C97.8768 14.982 96.8801 15.2764 95.8465 15.4235C94.7622 15.5799 93.7101 15.9663 92.6396 16.2376C91.0523 16.6424 89.4511 17.0149 87.8684 17.4381C86.2257 17.8796 84.5969 18.3625 82.9634 18.8363C80.4533 19.5676 77.9246 20.2437 75.456 21.1267C75.2437 21.2049 75.0222 21.2647 74.8792 21.4533C73.5964 21.6879 72.3875 22.1616 71.1509 22.5525C70.1772 22.8607 69.2175 23.2011 68.2485 23.5276C66.1767 24.1531 64.1418 24.8936 62.1253 25.6847C59.5736 26.6874 56.9942 27.6302 54.4702 28.6973C52.5922 29.4884 50.7096 30.2795 48.8593 31.1487C47.0274 32.0088 45.2047 32.8873 43.3775 33.7566C41.1811 34.8052 39.0262 35.9413 36.9036 37.1279C33.7752 38.8803 30.702 40.72 27.7627 42.7805C27.5874 42.9001 27.4997 43.0565 27.3705 43.1898C26.1385 43.8889 25.0449 44.7812 23.9283 45.6367C21.9026 47.1959 19.9462 48.8378 18.082 50.5902C17.3114 51.3123 16.587 52.0896 15.8764 52.8531C15.0735 53.7132 14.1645 54.5181 13.6154 55.5943C13.034 55.999 12.6094 56.5372 12.2034 57.1167C11.1329 58.6437 10.2562 60.281 9.31484 61.8816C8.94108 62.5163 8.7196 63.243 8.44735 63.9329C7.2015 67.0697 6.86004 70.3306 7.15074 73.6652C7.23841 74.6862 7.34915 75.7487 7.7183 76.6869C8.59501 78.9084 9.50864 81.1575 10.9437 83.08C12.531 85.2095 14.3306 87.1735 16.4024 88.889C17.2468 89.5927 18.165 90.2136 18.9541 91.0047C19.9738 92.0212 21.395 92.4949 22.5578 93.3412C22.9085 93.5988 23.3053 93.7919 23.8221 94.0955C23.2223 94.1369 22.8393 93.8931 22.4932 93.7091C19.8123 92.3201 17.1222 90.9495 14.6213 89.234C13.0017 88.1255 11.4466 86.9573 9.94699 85.6925C8.06437 84.1057 6.38015 82.3625 4.94511 80.3618C3.38087 78.1817 2.29651 75.8315 1.59975 73.2282C1.21677 71.7886 1.08757 70.3444 0.999898 68.9094C0.930683 67.7964 1.0322 66.5822 1.3229 65.5151C2.06118 62.8199 3.02095 60.1661 4.4883 57.7652C5.44807 56.1968 6.49551 54.6514 7.7183 53.29C9.45788 51.3583 11.1467 49.353 13.2554 47.7754C13.5092 47.5822 13.6338 47.2971 13.7584 47.0119C14.3167 46.6624 14.8289 46.2484 15.3319 45.8207C17.5883 43.9027 20.0431 42.247 22.4655 40.5498C23.5591 39.7863 24.6989 39.0872 25.8478 38.4111C27.7258 37.3073 29.6177 36.2264 31.528 35.1778C33.4291 34.1337 35.3348 33.0989 37.2774 32.1376C39.1508 31.2131 41.0703 30.3852 42.976 29.5344C45.3432 28.4765 47.6918 27.3589 50.1051 26.4206C52.0247 25.6755 53.9119 24.843 55.873 24.1945C57.9309 23.5138 59.9566 22.7319 61.9869 21.9638C63.445 21.4119 64.9723 21.044 66.3751 20.3357C67.6671 20.3081 68.7976 19.6779 70.0111 19.3606C71.783 18.9007 73.5088 18.2797 75.2622 17.7508C77.1725 17.1759 79.0736 16.555 81.0116 16.0813C82.6312 15.6903 84.237 15.2212 85.8474 14.7934C88.2514 14.1541 90.6831 13.6206 93.0779 12.9399C94.4668 12.5443 95.9019 12.296 97.3139 11.9786C100.544 11.2473 103.783 10.5436 107.032 9.90432C108.997 9.51798 110.958 9.13163 112.929 8.76828C114.594 8.46012 116.265 8.16577 117.935 7.87601C120.187 7.48506 122.452 7.14011 124.695 6.71697C128.137 6.06846 131.607 5.65912 135.063 5.12099C137.772 4.70245 140.517 4.51848 143.235 4.14133C146.354 3.70439 149.488 3.41003 152.616 3.08348C155.242 2.80752 157.89 2.76152 160.502 2.41657C162.025 2.2142 163.543 2.32919 165.047 2.14521C169.864 1.55649 174.714 1.58409 179.545 1.29433C188.806 0.73321 198.071 1.11036 207.332 1.05057C210.461 1.03217 213.571 1.34952 216.69 1.5473C218.605 1.66688 220.52 1.67148 222.435 1.85085C225.397 2.13141 228.369 2.2418 231.322 2.65114C231.599 2.68794 231.885 2.68794 232.166 2.70633C235.438 2.9639 238.691 3.37784 241.93 3.87917C244.2 4.22872 246.498 4.42189 248.764 4.80364C251.782 5.30957 254.79 5.90288 257.794 6.5008C259.432 6.82735 261.052 7.2183 262.676 7.61844C265.56 8.32674 268.439 9.05344 271.3 9.87672C273.764 10.585 276.2 11.3715 278.618 12.1994C280.842 12.9583 283.016 13.8598 285.184 14.775C287.464 15.7363 289.683 16.8034 291.857 17.9578C294.39 19.3054 296.84 20.8048 299.092 22.5985C300.859 24.0059 302.548 25.4823 304.098 27.1473C305.815 28.987 307.185 31.02 308.26 33.2598C308.685 34.1429 308.948 35.1088 309.266 36.0424C309.843 37.7442 310.065 39.5012 310.005 41.2857C309.968 42.3482 310.019 43.475 309.682 44.4593C309.063 46.2668 308.805 48.2169 307.841 49.8773C306.696 51.8504 305.552 53.8236 304.121 55.6403C302.783 57.3375 301.348 58.938 299.835 60.442C298.211 62.061 296.489 63.6064 294.588 64.9264C293.998 65.3357 293.449 65.8049 292.886 66.251C291.866 67.0605 290.795 67.7734 289.706 68.4771C289.333 68.7209 288.973 68.9968 288.742 69.397L288.751 69.4155Z" fill="#FD8305"/>
<path d="M68.2716 23.5415C69.2406 23.215 70.2003 22.8746 71.174 22.5665C72.4106 22.1755 73.6241 21.7018 74.9023 21.4672C83.7479 21.4672 92.5935 21.4764 101.444 21.458C102.136 21.458 102.348 21.619 102.343 22.3365C102.307 26.3655 102.302 30.39 102.343 34.419C102.353 35.2607 102.14 35.5274 101.264 35.5274C93.3779 35.4952 85.4921 35.5136 77.6063 35.5044C76.425 35.5044 75.3222 35.6838 74.2425 36.2449C72.9735 36.9026 72.6044 38.0525 72.1476 39.2529C71.4923 40.9731 71.7323 42.7346 71.7277 44.4778C71.7046 57.1812 71.7092 69.8846 71.7277 82.5834C71.7277 83.3193 71.5939 83.5815 70.7817 83.5723C66.7673 83.5263 62.7529 83.5355 58.7385 83.5677C58.1063 83.5677 57.9402 83.4067 57.9402 82.772C57.9633 68.6612 57.954 54.5504 57.9679 40.4395C57.9679 38.931 58.2124 37.3994 58.66 36.0012C59.0891 34.6674 59.4537 33.2691 60.1366 32.0181C61.6039 29.3275 63.4543 26.9542 66.0106 25.1835C66.7765 24.6546 67.5194 24.0934 68.2716 23.5461V23.5415Z" fill="#3B6440"/>
<path d="M13.6386 55.6081C14.1924 54.5318 15.1014 53.7269 15.8996 52.8669C16.6102 52.1034 17.3347 51.3307 18.1053 50.604C19.9694 48.8516 21.9259 47.2097 23.9516 45.6505C25.0636 44.795 26.1618 43.8981 27.3938 43.2036C27.5599 44.2661 27.4953 45.3377 27.4492 46.4002C27.4169 47.205 27.7076 47.3752 28.4597 47.3752C35.7226 47.3522 42.9855 47.3614 50.2484 47.3614C51.4343 47.3614 52.6247 47.3844 53.8106 47.3522C54.3505 47.3384 54.5627 47.4902 54.5627 48.0559C54.5489 52.5311 54.5443 57.0109 54.5627 61.486C54.5627 62.2265 54.1475 62.2035 53.6353 62.1989C45.468 62.1943 37.3007 62.1989 29.1334 62.1897C27.1031 62.1897 27.5138 62.3231 27.5138 63.7673C27.5 70.0178 27.4861 76.2684 27.5323 82.5189C27.5369 83.4158 27.2646 83.5767 26.4387 83.5675C22.595 83.5261 18.7513 83.5491 14.9076 83.5491C14.1108 83.5491 13.7109 83.1597 13.7079 82.3809C13.7079 73.9595 13.7079 65.5427 13.7079 57.1213C13.7079 56.6153 13.6617 56.114 13.634 55.6081H13.6386Z" fill="#3B6440"/>
<path d="M66.3982 20.3542C64.9955 21.0579 63.4682 21.4304 62.01 21.9823C59.9798 22.7504 57.9541 23.5323 55.8961 24.213C53.935 24.8615 52.0478 25.694 50.1283 26.4391C47.7104 27.3774 45.3663 28.495 42.9992 29.5529C41.0935 30.4037 39.1739 31.2316 37.3005 32.1561C35.3579 33.1128 33.4522 34.1522 31.5511 35.1963C29.6408 36.2449 27.7536 37.3258 25.871 38.4296C24.722 39.1057 23.5777 39.8002 22.4887 40.5683C20.0662 42.2655 17.6114 43.9212 15.355 45.8392C14.852 46.2669 14.3399 46.6809 13.7815 47.0304C13.7677 46.3865 13.74 45.738 13.74 45.0895C13.74 39.5151 13.74 33.9452 13.7354 28.3708C13.7354 27.2164 13.7077 26.0068 14.2014 24.9903C15.2027 22.9344 16.5593 21.1774 19.0141 20.6071C20.2646 20.3174 21.5058 20.3312 22.7609 20.3312C36.9129 20.3312 51.065 20.3312 65.217 20.3312C65.6138 20.3312 66.006 20.3542 66.4028 20.3634L66.3982 20.3542Z" fill="#3B6440"/>
<path d="M288.359 110.667C288.152 111.086 288.23 111.426 288.23 111.752C288.225 116.793 288.23 121.834 288.23 126.875C288.23 127.919 287.718 128.425 286.661 128.434C286.38 128.434 286.094 128.434 285.812 128.434C284.714 128.42 284.303 128.02 284.303 126.93C284.303 119.723 284.303 112.511 284.303 105.304C284.303 103.446 285.531 102.669 287.335 103.331C288.216 103.653 288.664 104.315 289.084 105.079C289.84 106.454 290.588 107.834 291.497 109.122C291.751 109.48 291.903 109.913 292.12 110.299C293.444 112.617 294.764 114.931 296.107 117.239C296.291 117.552 296.563 117.814 296.766 118.123C296.997 118.477 297.186 118.481 297.477 118.017C298.843 115.855 299.946 113.542 301.381 111.421C301.782 110.833 301.99 110.11 302.405 109.536C303.457 108.068 304.251 106.449 305.141 104.899C305.903 103.575 306.835 103.101 308.233 103.175C309.211 103.225 309.756 103.773 309.756 104.734C309.756 112.139 309.756 119.544 309.756 126.953C309.756 127.984 309.322 128.453 308.293 128.425C307.508 128.402 306.627 128.733 306.078 127.726C305.898 127.39 305.866 127.114 305.866 126.801C305.857 122.014 305.861 117.226 305.861 112.442C305.861 112.074 305.861 111.711 305.852 111.343C305.852 111.182 305.898 110.966 305.718 110.892C305.464 110.791 305.395 111.053 305.298 111.205C304.528 112.442 303.794 113.698 303.074 114.967C301.828 117.161 300.532 119.332 299.203 121.475C298.395 122.772 295.885 122.809 295.004 121.563C293.758 119.81 292.77 117.897 291.718 116.03C290.759 114.333 289.642 112.723 288.728 110.998C288.668 110.888 288.53 110.819 288.368 110.676L288.359 110.667Z" fill="#3B6440"/>
<path d="M262.095 115.814C262.095 116.743 262.27 117.713 262.058 118.592C261.633 120.344 261.619 122.239 260.627 123.807C259.045 126.305 256.797 127.887 253.84 128.485C253.018 128.651 252.179 128.669 251.357 128.904C250.273 129.207 249.179 128.752 248.104 128.6C246.604 128.388 245.193 127.846 243.896 126.986C242.793 126.254 241.903 125.376 241.141 124.29C239.808 122.395 239.54 120.28 239.572 118.063C239.6 116.15 239.595 114.232 239.582 112.318C239.572 110.902 239.826 109.471 240.504 108.298C241.635 106.344 243.241 104.817 245.432 103.915C247.26 103.166 249.156 102.784 251.062 102.871C254.476 103.028 257.596 104.012 259.861 106.845C260.973 108.239 261.356 109.825 261.735 111.518C262.053 112.962 262.048 114.374 262.09 115.809L262.095 115.814ZM258.251 115.984C258.177 114.236 258.228 112.562 257.933 110.879C257.563 108.791 255.639 106.882 253.646 106.279C251.98 105.778 250.273 105.875 248.621 106.068C247.19 106.238 245.815 106.914 244.865 108.055C243.725 109.425 243.139 111.067 243.121 112.87C243.102 114.811 243.042 116.761 243.139 118.698C243.204 119.999 243.342 121.282 244.085 122.497C244.74 123.559 245.539 124.405 246.595 124.93C248.755 126.006 251.076 126.126 253.378 125.472C255.833 124.773 257.48 123.269 257.965 120.615C258.251 119.047 258.154 117.483 258.256 115.979L258.251 115.984Z" fill="#3B6440"/>
<path d="M156.548 115.846C156.548 112.185 156.575 108.519 156.534 104.858C156.52 103.74 156.908 103.198 158.19 103.189C163.252 103.161 168.314 103.17 173.371 103.184C174.493 103.184 174.793 103.612 174.769 105.042C174.756 105.967 174.419 106.27 173.367 106.27C169.38 106.27 165.393 106.302 161.406 106.252C160.516 106.242 160.318 106.528 160.336 107.356C160.387 109.384 160.368 111.412 160.341 113.44C160.331 114.084 160.516 114.314 161.208 114.31C164.941 114.278 168.674 114.296 172.402 114.296C173.754 114.296 174.497 115.552 173.842 116.761C173.579 117.249 173.048 117.235 172.568 117.235C169.403 117.235 166.238 117.235 163.068 117.235C162.417 117.235 161.766 117.258 161.116 117.226C160.576 117.203 160.341 117.396 160.345 117.948C160.359 120.229 160.359 122.51 160.345 124.792C160.341 125.426 160.673 125.514 161.203 125.514C165.301 125.5 169.403 125.505 173.501 125.505C174.991 125.505 175.595 126.208 175.208 127.616C175.032 128.25 174.456 128.434 173.805 128.434C169.818 128.425 165.832 128.434 161.845 128.434C160.516 128.434 159.187 128.444 157.858 128.43C156.908 128.421 156.538 128.039 156.538 127.087C156.534 123.338 156.538 119.594 156.538 115.846H156.548Z" fill="#3B6440"/>
<path d="M76.5774 115.828C76.5774 112.139 76.5774 108.45 76.5774 104.761C76.5774 103.731 77.1265 103.184 78.2062 103.179C81.0348 103.175 83.8587 103.179 86.6873 103.179C88.8652 103.179 91.0386 103.179 93.2165 103.184C94.4116 103.184 95.0438 103.786 95.0299 104.886C95.0207 105.704 94.3931 106.265 93.4518 106.265C89.4928 106.265 85.5383 106.265 81.5793 106.265C80.7272 106.265 80.3011 106.692 80.3011 107.544C80.3011 109.457 80.3334 111.375 80.2873 113.289C80.2688 114.084 80.5595 114.301 81.3209 114.296C85.0538 114.264 88.7822 114.278 92.5151 114.291C93.0135 114.291 93.5949 114.121 93.8394 114.852C94.084 115.579 94.0932 116.264 93.701 116.927C93.4703 117.313 93.0458 117.212 92.6997 117.217C90.6371 117.235 88.5745 117.226 86.512 117.23C84.7862 117.23 83.0651 117.263 81.3393 117.217C80.518 117.198 80.2688 117.502 80.2873 118.307C80.338 120.362 80.3427 122.418 80.2873 124.474C80.2642 125.334 80.6149 125.523 81.3809 125.518C85.3953 125.495 89.4097 125.509 93.4195 125.509C95.0253 125.509 95.6621 126.406 95.0484 127.873C94.8361 128.384 94.2963 128.434 93.7841 128.434C90.6187 128.434 87.4533 128.434 84.2879 128.434C82.1976 128.434 80.1027 128.439 78.0124 128.434C76.9096 128.434 76.5774 128.085 76.5774 126.981C76.5774 123.265 76.5774 119.544 76.5774 115.828Z" fill="#3B6440"/>
<path d="M199.525 115.915C199.525 116.899 199.516 117.888 199.525 118.872C199.553 121.296 200.517 123.255 202.515 124.654C203.581 125.399 204.827 125.698 206.11 125.799C207.858 125.937 209.612 125.854 211.259 125.233C212.367 124.815 213.303 124.088 214.032 123.09C214.544 122.386 214.854 121.627 215.052 120.809C215.117 120.533 215.246 120.303 215.477 120.229C216.376 119.944 217.299 119.976 218.204 120.201C218.388 120.247 218.568 120.441 218.573 120.712C218.587 121.788 218.397 122.786 217.687 123.656C217.373 124.037 217.188 124.52 216.875 124.902C215.255 126.884 213.137 127.97 210.636 128.476C209.759 128.655 208.864 128.692 207.988 128.908C206.88 129.179 205.75 128.742 204.642 128.591C202.82 128.338 201.108 127.62 199.631 126.549C198.131 125.459 197.102 123.964 196.507 122.161C195.257 118.366 195.487 114.461 196.133 110.69C196.623 107.834 198.478 105.539 201.352 104.21C203.341 103.29 205.39 102.871 207.498 102.871C210.087 102.871 212.611 103.446 214.803 104.89C215.809 105.553 216.695 106.385 217.359 107.48C217.968 108.478 218.504 109.448 218.559 110.621C218.596 111.463 218.337 111.711 217.465 111.729C217.068 111.739 216.672 111.729 216.279 111.729C215.647 111.729 215.167 111.453 215.057 110.837C214.877 109.848 214.254 109.108 213.769 108.289C213.225 107.369 212.297 106.896 211.379 106.583C208.481 105.594 205.533 105.525 202.75 106.914C201.371 107.604 200.572 108.915 199.977 110.396C199.234 112.226 199.682 114.089 199.525 115.924V115.915Z" fill="#3B6440"/>
<path d="M43.1654 117.065C43.1654 113.716 43.1516 110.363 43.1793 107.015C43.1793 106.435 43.0455 106.242 42.4364 106.256C40.263 106.293 38.0851 106.274 35.9118 106.27C34.749 106.27 34.509 106.031 34.509 104.922C34.509 103.57 34.8136 103.184 35.9302 103.184C41.9473 103.184 47.9689 103.202 53.9859 103.161C55.0841 103.152 56.0531 104.016 55.7255 105.267C55.564 105.884 55.038 106.279 54.3089 106.279C52.131 106.27 49.9577 106.311 47.7843 106.256C46.9999 106.238 46.7784 106.468 46.7784 107.25C46.8061 113.753 46.7969 120.257 46.7923 126.76C46.7923 128.351 46.7046 128.439 45.1403 128.439C44.8866 128.439 44.6328 128.439 44.379 128.439C43.4607 128.411 43.1747 128.126 43.17 127.211C43.17 123.83 43.17 120.454 43.17 117.074L43.1654 117.065Z" fill="#3B6440"/>
<path d="M117.155 115.851C117.155 112.102 117.155 108.358 117.155 104.61C117.155 103.635 117.515 103.248 118.489 103.179C118.826 103.156 119.167 103.165 119.509 103.179C120.33 103.211 120.69 103.593 120.69 104.463C120.69 111.081 120.69 117.704 120.69 124.323C120.69 125.454 120.732 125.505 121.871 125.505C126.001 125.509 130.126 125.505 134.256 125.505C135.663 125.505 135.949 125.781 135.926 127.082C135.913 127.887 135.4 128.416 134.579 128.425C132.881 128.439 131.188 128.425 129.489 128.425C125.844 128.425 122.194 128.425 118.549 128.425C117.294 128.425 117.151 128.269 117.151 126.999C117.151 123.278 117.151 119.562 117.151 115.841L117.155 115.851Z" fill="#3B6440"/>
</svg>
